<mxfile host="app.diagrams.net" agent="Mozilla/5.0 (Windows NT 10.0; Win64; x64) AppleWebKit/537.36 (KHTML, like Gecko) Chrome/138.0.0.0 YaBrowser/25.8.0.0 Safari/537.36" version="28.2.0">
  <diagram id="C5RBs43oDa-KdzZeNtuy" name="Page-1">
    <mxGraphModel dx="1148" dy="663" grid="1" gridSize="10" guides="1" tooltips="1" connect="1" arrows="1" fold="1" page="1" pageScale="1" pageWidth="827" pageHeight="1169" math="0" shadow="0">
      <root>
        <mxCell id="WIyWlLk6GJQsqaUBKTNV-0" />
        <mxCell id="WIyWlLk6GJQsqaUBKTNV-1" parent="WIyWlLk6GJQsqaUBKTNV-0" />
        <mxCell id="ON_k6Mr5wb7j3_E2UGuq-7" value="" style="group;fillColor=#000000;fillStyle=solid;" parent="WIyWlLk6GJQsqaUBKTNV-1" vertex="1" connectable="0">
          <mxGeometry x="80" y="40" width="1000" height="600" as="geometry" />
        </mxCell>
        <mxCell id="ON_k6Mr5wb7j3_E2UGuq-0" value="" style="rounded=0;whiteSpace=wrap;html=1;" parent="ON_k6Mr5wb7j3_E2UGuq-7" vertex="1">
          <mxGeometry width="1000" height="600" as="geometry" />
        </mxCell>
        <mxCell id="ON_k6Mr5wb7j3_E2UGuq-1" value="" style="rounded=0;whiteSpace=wrap;html=1;" parent="ON_k6Mr5wb7j3_E2UGuq-7" vertex="1">
          <mxGeometry width="1000" height="60" as="geometry" />
        </mxCell>
        <mxCell id="ON_k6Mr5wb7j3_E2UGuq-2" value="Формирование портфеля лицензионных участков" style="rounded=0;whiteSpace=wrap;html=1;" parent="ON_k6Mr5wb7j3_E2UGuq-7" vertex="1">
          <mxGeometry y="540" width="1000" height="60" as="geometry" />
        </mxCell>
        <mxCell id="ON_k6Mr5wb7j3_E2UGuq-3" value="" style="rounded=0;whiteSpace=wrap;html=1;" parent="ON_k6Mr5wb7j3_E2UGuq-7" vertex="1">
          <mxGeometry width="170" height="60" as="geometry" />
        </mxCell>
        <mxCell id="ON_k6Mr5wb7j3_E2UGuq-4" value="" style="rounded=0;whiteSpace=wrap;html=1;" parent="ON_k6Mr5wb7j3_E2UGuq-7" vertex="1">
          <mxGeometry x="830" width="170" height="60" as="geometry" />
        </mxCell>
        <mxCell id="ON_k6Mr5wb7j3_E2UGuq-5" value="A-0" style="rounded=0;whiteSpace=wrap;html=1;" parent="ON_k6Mr5wb7j3_E2UGuq-7" vertex="1">
          <mxGeometry y="540" width="170" height="60" as="geometry" />
        </mxCell>
        <mxCell id="ON_k6Mr5wb7j3_E2UGuq-6" value="ЛАА001" style="rounded=0;whiteSpace=wrap;html=1;" parent="ON_k6Mr5wb7j3_E2UGuq-7" vertex="1">
          <mxGeometry x="830" y="540" width="170" height="60" as="geometry" />
        </mxCell>
        <mxCell id="ON_k6Mr5wb7j3_E2UGuq-8" value="" style="rounded=0;whiteSpace=wrap;html=1;gradientColor=none;fillStyle=solid;fillColor=#000000;" parent="ON_k6Mr5wb7j3_E2UGuq-7" vertex="1">
          <mxGeometry x="895" y="15" width="40" height="30" as="geometry" />
        </mxCell>
        <mxCell id="ON_k6Mr5wb7j3_E2UGuq-9" value="Формирование портфеля лицензионных участков" style="rounded=1;whiteSpace=wrap;html=1;" parent="ON_k6Mr5wb7j3_E2UGuq-7" vertex="1">
          <mxGeometry x="292" y="205" width="416" height="190" as="geometry" />
        </mxCell>
        <mxCell id="ON_k6Mr5wb7j3_E2UGuq-10" value="" style="endArrow=classic;html=1;rounded=0;exitX=0;exitY=0.5;exitDx=0;exitDy=0;entryX=0;entryY=0.5;entryDx=0;entryDy=0;" parent="ON_k6Mr5wb7j3_E2UGuq-7" source="ON_k6Mr5wb7j3_E2UGuq-0" target="ON_k6Mr5wb7j3_E2UGuq-9" edge="1">
          <mxGeometry width="50" height="50" relative="1" as="geometry">
            <mxPoint x="540" y="290" as="sourcePoint" />
            <mxPoint x="590" y="240" as="targetPoint" />
          </mxGeometry>
        </mxCell>
        <mxCell id="ON_k6Mr5wb7j3_E2UGuq-12" value="Количество лицензионных&amp;nbsp;&lt;div&gt;участков на входе&lt;/div&gt;" style="edgeLabel;html=1;align=center;verticalAlign=middle;resizable=0;points=[];" parent="ON_k6Mr5wb7j3_E2UGuq-10" vertex="1" connectable="0">
          <mxGeometry x="-0.1849" relative="1" as="geometry">
            <mxPoint as="offset" />
          </mxGeometry>
        </mxCell>
        <mxCell id="ON_k6Mr5wb7j3_E2UGuq-11" value="" style="endArrow=classic;html=1;rounded=0;exitX=0;exitY=0.5;exitDx=0;exitDy=0;entryX=0;entryY=0.5;entryDx=0;entryDy=0;" parent="ON_k6Mr5wb7j3_E2UGuq-7" edge="1">
          <mxGeometry width="50" height="50" relative="1" as="geometry">
            <mxPoint x="708" y="299.5" as="sourcePoint" />
            <mxPoint x="1000" y="299.5" as="targetPoint" />
          </mxGeometry>
        </mxCell>
        <mxCell id="ON_k6Mr5wb7j3_E2UGuq-13" value="Количество лицензионных&lt;div&gt;участков на выходе&lt;/div&gt;" style="edgeLabel;html=1;align=center;verticalAlign=middle;resizable=0;points=[];" parent="ON_k6Mr5wb7j3_E2UGuq-11" vertex="1" connectable="0">
          <mxGeometry x="-0.1849" y="2" relative="1" as="geometry">
            <mxPoint y="1" as="offset" />
          </mxGeometry>
        </mxCell>
        <mxCell id="ON_k6Mr5wb7j3_E2UGuq-14" value="" style="group;fillColor=#000000;fillStyle=solid;" parent="WIyWlLk6GJQsqaUBKTNV-1" vertex="1" connectable="0">
          <mxGeometry x="80" y="760" width="1000" height="600" as="geometry" />
        </mxCell>
        <mxCell id="ON_k6Mr5wb7j3_E2UGuq-15" value="" style="rounded=0;whiteSpace=wrap;html=1;" parent="ON_k6Mr5wb7j3_E2UGuq-14" vertex="1">
          <mxGeometry width="1000" height="600" as="geometry" />
        </mxCell>
        <mxCell id="ON_k6Mr5wb7j3_E2UGuq-16" value="" style="rounded=0;whiteSpace=wrap;html=1;" parent="ON_k6Mr5wb7j3_E2UGuq-14" vertex="1">
          <mxGeometry width="1000" height="60" as="geometry" />
        </mxCell>
        <mxCell id="ON_k6Mr5wb7j3_E2UGuq-17" value="Формирование портфеля лицензионных участков" style="rounded=0;whiteSpace=wrap;html=1;" parent="ON_k6Mr5wb7j3_E2UGuq-14" vertex="1">
          <mxGeometry y="540" width="1000" height="60" as="geometry" />
        </mxCell>
        <mxCell id="ON_k6Mr5wb7j3_E2UGuq-18" value="" style="rounded=0;whiteSpace=wrap;html=1;" parent="ON_k6Mr5wb7j3_E2UGuq-14" vertex="1">
          <mxGeometry width="170" height="60" as="geometry" />
        </mxCell>
        <mxCell id="ON_k6Mr5wb7j3_E2UGuq-19" value="" style="rounded=0;whiteSpace=wrap;html=1;" parent="ON_k6Mr5wb7j3_E2UGuq-14" vertex="1">
          <mxGeometry x="830" width="170" height="60" as="geometry" />
        </mxCell>
        <mxCell id="ON_k6Mr5wb7j3_E2UGuq-20" value="A0" style="rounded=0;whiteSpace=wrap;html=1;" parent="ON_k6Mr5wb7j3_E2UGuq-14" vertex="1">
          <mxGeometry y="540" width="170" height="60" as="geometry" />
        </mxCell>
        <mxCell id="ON_k6Mr5wb7j3_E2UGuq-21" value="ЛАА002" style="rounded=0;whiteSpace=wrap;html=1;" parent="ON_k6Mr5wb7j3_E2UGuq-14" vertex="1">
          <mxGeometry x="830" y="540" width="170" height="60" as="geometry" />
        </mxCell>
        <mxCell id="ON_k6Mr5wb7j3_E2UGuq-39" style="edgeStyle=orthogonalEdgeStyle;rounded=0;orthogonalLoop=1;jettySize=auto;html=1;exitX=0;exitY=0;exitDx=120;exitDy=50;exitPerimeter=0;entryX=0;entryY=0.5;entryDx=0;entryDy=0;" parent="ON_k6Mr5wb7j3_E2UGuq-14" source="ON_k6Mr5wb7j3_E2UGuq-28" target="ON_k6Mr5wb7j3_E2UGuq-29" edge="1">
          <mxGeometry relative="1" as="geometry" />
        </mxCell>
        <mxCell id="ON_k6Mr5wb7j3_E2UGuq-41" value="&lt;font style=&quot;font-size: 6px;&quot;&gt;Сейсмические кубы/&lt;/font&gt;&lt;div&gt;&lt;font style=&quot;font-size: 6px;&quot;&gt;Открытые геологические&amp;nbsp;&lt;/font&gt;&lt;/div&gt;&lt;div&gt;&lt;font style=&quot;font-size: 6px;&quot;&gt;отчёты и т.д.&lt;/font&gt;&lt;/div&gt;" style="edgeLabel;html=1;align=center;verticalAlign=middle;resizable=0;points=[];" parent="ON_k6Mr5wb7j3_E2UGuq-39" vertex="1" connectable="0">
          <mxGeometry x="-0.4143" relative="1" as="geometry">
            <mxPoint as="offset" />
          </mxGeometry>
        </mxCell>
        <mxCell id="ON_k6Mr5wb7j3_E2UGuq-28" value="Внешние данные" style="shape=cube;whiteSpace=wrap;html=1;boundedLbl=1;backgroundOutline=1;darkOpacity=0.05;darkOpacity2=0.1;" parent="ON_k6Mr5wb7j3_E2UGuq-14" vertex="1">
          <mxGeometry x="20" y="80" width="120" height="80" as="geometry" />
        </mxCell>
        <mxCell id="ON_k6Mr5wb7j3_E2UGuq-43" style="edgeStyle=orthogonalEdgeStyle;rounded=0;orthogonalLoop=1;jettySize=auto;html=1;exitX=1;exitY=0.5;exitDx=0;exitDy=0;" parent="ON_k6Mr5wb7j3_E2UGuq-14" source="ON_k6Mr5wb7j3_E2UGuq-29" target="ON_k6Mr5wb7j3_E2UGuq-30" edge="1">
          <mxGeometry relative="1" as="geometry" />
        </mxCell>
        <mxCell id="ON_k6Mr5wb7j3_E2UGuq-44" value="&lt;font style=&quot;font-size: 6px;&quot;&gt;Очищенные и приведённые&lt;/font&gt;&lt;div&gt;&lt;font style=&quot;font-size: 6px;&quot;&gt;к единому формату&lt;/font&gt;&lt;/div&gt;&lt;div&gt;&lt;font style=&quot;font-size: 6px;&quot;&gt;данные&lt;/font&gt;&lt;/div&gt;" style="edgeLabel;html=1;align=center;verticalAlign=middle;resizable=0;points=[];" parent="ON_k6Mr5wb7j3_E2UGuq-43" vertex="1" connectable="0">
          <mxGeometry x="-0.3517" y="2" relative="1" as="geometry">
            <mxPoint as="offset" />
          </mxGeometry>
        </mxCell>
        <mxCell id="ON_k6Mr5wb7j3_E2UGuq-29" value="&lt;font style=&quot;font-size: 10px;&quot;&gt;Собрать и обработать исходные геологические данные&lt;/font&gt;" style="rounded=1;whiteSpace=wrap;html=1;" parent="ON_k6Mr5wb7j3_E2UGuq-14" vertex="1">
          <mxGeometry x="240" y="140" width="130" height="60" as="geometry" />
        </mxCell>
        <mxCell id="ON_k6Mr5wb7j3_E2UGuq-40" style="edgeStyle=orthogonalEdgeStyle;rounded=0;orthogonalLoop=1;jettySize=auto;html=1;exitX=0;exitY=0;exitDx=120;exitDy=50;exitPerimeter=0;entryX=0;entryY=0.75;entryDx=0;entryDy=0;" parent="ON_k6Mr5wb7j3_E2UGuq-14" source="ON_k6Mr5wb7j3_E2UGuq-31" target="ON_k6Mr5wb7j3_E2UGuq-29" edge="1">
          <mxGeometry relative="1" as="geometry" />
        </mxCell>
        <mxCell id="ON_k6Mr5wb7j3_E2UGuq-42" value="&lt;font style=&quot;font-size: 6px;&quot;&gt;Исторические отчёты/&lt;/font&gt;&lt;div&gt;&lt;font style=&quot;font-size: 6px;&quot;&gt;карты прошлых лет/&lt;/font&gt;&lt;/div&gt;&lt;div&gt;&lt;font style=&quot;font-size: 6px;&quot;&gt;данные по прошлым&lt;/font&gt;&lt;/div&gt;&lt;div&gt;&lt;font style=&quot;font-size: 6px;&quot;&gt;скважинам&lt;/font&gt;&lt;/div&gt;" style="edgeLabel;html=1;align=center;verticalAlign=middle;resizable=0;points=[];" parent="ON_k6Mr5wb7j3_E2UGuq-40" vertex="1" connectable="0">
          <mxGeometry x="-0.4716" y="-1" relative="1" as="geometry">
            <mxPoint as="offset" />
          </mxGeometry>
        </mxCell>
        <mxCell id="ON_k6Mr5wb7j3_E2UGuq-31" value="Внутренние архивы" style="shape=cube;whiteSpace=wrap;html=1;boundedLbl=1;backgroundOutline=1;darkOpacity=0.05;darkOpacity2=0.1;" parent="ON_k6Mr5wb7j3_E2UGuq-14" vertex="1">
          <mxGeometry x="25" y="180" width="120" height="80" as="geometry" />
        </mxCell>
        <mxCell id="ON_k6Mr5wb7j3_E2UGuq-63" style="edgeStyle=orthogonalEdgeStyle;rounded=0;orthogonalLoop=1;jettySize=auto;html=1;exitX=0;exitY=0;exitDx=70;exitDy=80;exitPerimeter=0;entryX=0.5;entryY=1;entryDx=0;entryDy=0;" parent="ON_k6Mr5wb7j3_E2UGuq-14" source="ON_k6Mr5wb7j3_E2UGuq-32" target="ON_k6Mr5wb7j3_E2UGuq-34" edge="1">
          <mxGeometry relative="1" as="geometry">
            <Array as="points">
              <mxPoint x="100" y="460" />
              <mxPoint x="605" y="460" />
            </Array>
          </mxGeometry>
        </mxCell>
        <mxCell id="ON_k6Mr5wb7j3_E2UGuq-64" value="Критерии верификации" style="edgeLabel;html=1;align=center;verticalAlign=middle;resizable=0;points=[];" parent="ON_k6Mr5wb7j3_E2UGuq-63" vertex="1" connectable="0">
          <mxGeometry x="-0.0938" y="-1" relative="1" as="geometry">
            <mxPoint as="offset" />
          </mxGeometry>
        </mxCell>
        <mxCell id="ON_k6Mr5wb7j3_E2UGuq-65" style="edgeStyle=orthogonalEdgeStyle;rounded=0;orthogonalLoop=1;jettySize=auto;html=1;exitX=0;exitY=0;exitDx=120;exitDy=50;exitPerimeter=0;entryX=0;entryY=0.5;entryDx=0;entryDy=0;" parent="ON_k6Mr5wb7j3_E2UGuq-14" source="ON_k6Mr5wb7j3_E2UGuq-32" target="ON_k6Mr5wb7j3_E2UGuq-33" edge="1">
          <mxGeometry relative="1" as="geometry" />
        </mxCell>
        <mxCell id="ON_k6Mr5wb7j3_E2UGuq-66" value="Экспертное мнение/&lt;div&gt;Опыт по региону/&lt;/div&gt;&lt;div&gt;Концептуальные модели&lt;/div&gt;" style="edgeLabel;html=1;align=center;verticalAlign=middle;resizable=0;points=[];" parent="ON_k6Mr5wb7j3_E2UGuq-65" vertex="1" connectable="0">
          <mxGeometry x="0.1303" relative="1" as="geometry">
            <mxPoint y="18" as="offset" />
          </mxGeometry>
        </mxCell>
        <mxCell id="ON_k6Mr5wb7j3_E2UGuq-32" value="Геологи/геофизики" style="shape=cube;whiteSpace=wrap;html=1;boundedLbl=1;backgroundOutline=1;darkOpacity=0.05;darkOpacity2=0.1;" parent="ON_k6Mr5wb7j3_E2UGuq-14" vertex="1">
          <mxGeometry x="30" y="290" width="120" height="80" as="geometry" />
        </mxCell>
        <mxCell id="ON_k6Mr5wb7j3_E2UGuq-47" style="edgeStyle=orthogonalEdgeStyle;rounded=0;orthogonalLoop=1;jettySize=auto;html=1;exitX=0.5;exitY=1;exitDx=0;exitDy=0;entryX=0.5;entryY=0;entryDx=0;entryDy=0;" parent="ON_k6Mr5wb7j3_E2UGuq-14" source="ON_k6Mr5wb7j3_E2UGuq-33" target="ON_k6Mr5wb7j3_E2UGuq-36" edge="1">
          <mxGeometry relative="1" as="geometry" />
        </mxCell>
        <mxCell id="ON_k6Mr5wb7j3_E2UGuq-48" value="&lt;font style=&quot;font-size: 9px;&quot;&gt;Карты аномалий/&lt;/font&gt;&lt;div&gt;&lt;font style=&quot;font-size: 9px;&quot;&gt;Структурные карты/&lt;/font&gt;&lt;/div&gt;&lt;div&gt;&lt;font style=&quot;font-size: 9px;&quot;&gt;Выделенные ловушки&lt;/font&gt;&lt;/div&gt;" style="edgeLabel;html=1;align=center;verticalAlign=middle;resizable=0;points=[];" parent="ON_k6Mr5wb7j3_E2UGuq-47" vertex="1" connectable="0">
          <mxGeometry x="0.2174" y="-1" relative="1" as="geometry">
            <mxPoint as="offset" />
          </mxGeometry>
        </mxCell>
        <mxCell id="ON_k6Mr5wb7j3_E2UGuq-33" value="Интерпретировать данные/ сгенерировать гипотезы" style="rounded=1;whiteSpace=wrap;html=1;" parent="ON_k6Mr5wb7j3_E2UGuq-14" vertex="1">
          <mxGeometry x="370" y="250" width="130" height="60" as="geometry" />
        </mxCell>
        <mxCell id="ON_k6Mr5wb7j3_E2UGuq-51" style="edgeStyle=orthogonalEdgeStyle;rounded=0;orthogonalLoop=1;jettySize=auto;html=1;exitX=0.5;exitY=0;exitDx=0;exitDy=0;" parent="ON_k6Mr5wb7j3_E2UGuq-14" source="ON_k6Mr5wb7j3_E2UGuq-34" target="ON_k6Mr5wb7j3_E2UGuq-37" edge="1">
          <mxGeometry relative="1" as="geometry" />
        </mxCell>
        <mxCell id="ON_k6Mr5wb7j3_E2UGuq-52" value="Отклонённая гипотеза" style="edgeLabel;html=1;align=center;verticalAlign=middle;resizable=0;points=[];" parent="ON_k6Mr5wb7j3_E2UGuq-51" vertex="1" connectable="0">
          <mxGeometry x="-0.1069" y="-2" relative="1" as="geometry">
            <mxPoint as="offset" />
          </mxGeometry>
        </mxCell>
        <mxCell id="ON_k6Mr5wb7j3_E2UGuq-53" style="edgeStyle=orthogonalEdgeStyle;rounded=0;orthogonalLoop=1;jettySize=auto;html=1;exitX=1;exitY=0.5;exitDx=0;exitDy=0;" parent="ON_k6Mr5wb7j3_E2UGuq-14" source="ON_k6Mr5wb7j3_E2UGuq-34" target="ON_k6Mr5wb7j3_E2UGuq-35" edge="1">
          <mxGeometry relative="1" as="geometry" />
        </mxCell>
        <mxCell id="ON_k6Mr5wb7j3_E2UGuq-54" value="&lt;font style=&quot;font-size: 6px;&quot;&gt;Верифицированный первичной&lt;/font&gt;&lt;div&gt;&lt;font style=&quot;font-size: 6px;&quot;&gt;оценкой перспективный&lt;/font&gt;&lt;/div&gt;&lt;div&gt;&lt;font style=&quot;font-size: 6px;&quot;&gt;объект&lt;/font&gt;&lt;/div&gt;" style="edgeLabel;html=1;align=center;verticalAlign=middle;resizable=0;points=[];" parent="ON_k6Mr5wb7j3_E2UGuq-53" vertex="1" connectable="0">
          <mxGeometry x="-0.0348" y="3" relative="1" as="geometry">
            <mxPoint as="offset" />
          </mxGeometry>
        </mxCell>
        <mxCell id="ON_k6Mr5wb7j3_E2UGuq-59" style="edgeStyle=orthogonalEdgeStyle;rounded=0;orthogonalLoop=1;jettySize=auto;html=1;exitX=0;exitY=0;exitDx=0;exitDy=0;entryX=1;entryY=0.5;entryDx=0;entryDy=0;" parent="ON_k6Mr5wb7j3_E2UGuq-14" source="ON_k6Mr5wb7j3_E2UGuq-34" target="ON_k6Mr5wb7j3_E2UGuq-33" edge="1">
          <mxGeometry relative="1" as="geometry" />
        </mxCell>
        <mxCell id="ON_k6Mr5wb7j3_E2UGuq-60" value="&lt;font style=&quot;font-size: 6px;&quot;&gt;Запрос на доп.&amp;nbsp;&lt;/font&gt;&lt;div&gt;&lt;font style=&quot;font-size: 6px;&quot;&gt;интерпретацию&lt;/font&gt;&lt;/div&gt;&lt;div&gt;&lt;font style=&quot;font-size: 6px;&quot;&gt;или данные&lt;/font&gt;&lt;/div&gt;" style="edgeLabel;html=1;align=center;verticalAlign=middle;resizable=0;points=[];" parent="ON_k6Mr5wb7j3_E2UGuq-59" vertex="1" connectable="0">
          <mxGeometry x="0.3197" relative="1" as="geometry">
            <mxPoint as="offset" />
          </mxGeometry>
        </mxCell>
        <mxCell id="ON_k6Mr5wb7j3_E2UGuq-34" value="&lt;div style=&quot;&quot;&gt;&lt;span style=&quot;font-size: 10px; background-color: transparent;&quot;&gt;Провести первичную оценку и&lt;/span&gt;&lt;span style=&quot;background-color: transparent; color: light-dark(rgb(0, 0, 0), rgb(255, 255, 255)); font-size: 10px;&quot;&gt;&amp;nbsp;&lt;/span&gt;&lt;/div&gt;&lt;div style=&quot;&quot;&gt;&lt;span style=&quot;background-color: transparent; color: light-dark(rgb(0, 0, 0), rgb(255, 255, 255)); font-size: 10px;&quot;&gt;верифицировать&lt;/span&gt;&lt;/div&gt;&lt;div style=&quot;text-align: center;&quot;&gt;&lt;span style=&quot;background-color: transparent; font-size: 10px; text-align: start;&quot;&gt;объект&amp;nbsp;&lt;/span&gt;&lt;/div&gt;" style="rounded=1;whiteSpace=wrap;html=1;" parent="ON_k6Mr5wb7j3_E2UGuq-14" vertex="1">
          <mxGeometry x="540" y="340" width="130" height="60" as="geometry" />
        </mxCell>
        <mxCell id="ON_k6Mr5wb7j3_E2UGuq-55" style="edgeStyle=orthogonalEdgeStyle;rounded=0;orthogonalLoop=1;jettySize=auto;html=1;exitX=0.5;exitY=1;exitDx=0;exitDy=0;entryX=1;entryY=0.5;entryDx=0;entryDy=0;" parent="ON_k6Mr5wb7j3_E2UGuq-14" source="ON_k6Mr5wb7j3_E2UGuq-35" target="ON_k6Mr5wb7j3_E2UGuq-38" edge="1">
          <mxGeometry relative="1" as="geometry" />
        </mxCell>
        <mxCell id="ON_k6Mr5wb7j3_E2UGuq-56" value="Стандартизированная&lt;div&gt;запись в БД&lt;/div&gt;" style="edgeLabel;html=1;align=center;verticalAlign=middle;resizable=0;points=[];" parent="ON_k6Mr5wb7j3_E2UGuq-55" vertex="1" connectable="0">
          <mxGeometry x="0.2926" y="4" relative="1" as="geometry">
            <mxPoint as="offset" />
          </mxGeometry>
        </mxCell>
        <mxCell id="ON_k6Mr5wb7j3_E2UGuq-35" value="&lt;font style=&quot;font-size: 10px;&quot;&gt;Произвести формализацию и занести перспективный объект в БД&lt;/font&gt;" style="rounded=1;whiteSpace=wrap;html=1;" parent="ON_k6Mr5wb7j3_E2UGuq-14" vertex="1">
          <mxGeometry x="730" y="409" width="170" height="60" as="geometry" />
        </mxCell>
        <mxCell id="ON_k6Mr5wb7j3_E2UGuq-49" style="edgeStyle=orthogonalEdgeStyle;rounded=0;orthogonalLoop=1;jettySize=auto;html=1;exitX=1;exitY=0.5;exitDx=0;exitDy=0;entryX=0;entryY=0.5;entryDx=0;entryDy=0;" parent="ON_k6Mr5wb7j3_E2UGuq-14" source="ON_k6Mr5wb7j3_E2UGuq-36" target="ON_k6Mr5wb7j3_E2UGuq-34" edge="1">
          <mxGeometry relative="1" as="geometry" />
        </mxCell>
        <mxCell id="ON_k6Mr5wb7j3_E2UGuq-50" value="Набор потенциальных&lt;div&gt;ловушек&lt;/div&gt;" style="edgeLabel;html=1;align=center;verticalAlign=middle;resizable=0;points=[];" parent="ON_k6Mr5wb7j3_E2UGuq-49" vertex="1" connectable="0">
          <mxGeometry x="-0.3319" y="-1" relative="1" as="geometry">
            <mxPoint as="offset" />
          </mxGeometry>
        </mxCell>
        <mxCell id="ON_k6Mr5wb7j3_E2UGuq-36" value="Каталог интерпретаций" style="shape=process;whiteSpace=wrap;html=1;backgroundOutline=1;" parent="ON_k6Mr5wb7j3_E2UGuq-14" vertex="1">
          <mxGeometry x="285" y="390" width="120" height="60" as="geometry" />
        </mxCell>
        <mxCell id="ON_k6Mr5wb7j3_E2UGuq-45" style="edgeStyle=orthogonalEdgeStyle;rounded=0;orthogonalLoop=1;jettySize=auto;html=1;exitX=1;exitY=0.5;exitDx=0;exitDy=0;" parent="ON_k6Mr5wb7j3_E2UGuq-14" source="ON_k6Mr5wb7j3_E2UGuq-30" target="ON_k6Mr5wb7j3_E2UGuq-33" edge="1">
          <mxGeometry relative="1" as="geometry" />
        </mxCell>
        <mxCell id="ON_k6Mr5wb7j3_E2UGuq-46" value="Структурированные данные" style="edgeLabel;html=1;align=center;verticalAlign=middle;resizable=0;points=[];" parent="ON_k6Mr5wb7j3_E2UGuq-45" vertex="1" connectable="0">
          <mxGeometry x="-0.078" y="3" relative="1" as="geometry">
            <mxPoint as="offset" />
          </mxGeometry>
        </mxCell>
        <mxCell id="ON_k6Mr5wb7j3_E2UGuq-30" value="Хранилище исходных данных" style="shape=process;whiteSpace=wrap;html=1;backgroundOutline=1;" parent="ON_k6Mr5wb7j3_E2UGuq-14" vertex="1">
          <mxGeometry x="460" y="70" width="120" height="60" as="geometry" />
        </mxCell>
        <mxCell id="ON_k6Mr5wb7j3_E2UGuq-38" value="База перспективных объектов" style="shape=process;whiteSpace=wrap;html=1;backgroundOutline=1;" parent="ON_k6Mr5wb7j3_E2UGuq-14" vertex="1">
          <mxGeometry x="500" y="469" width="120" height="60" as="geometry" />
        </mxCell>
        <mxCell id="ON_k6Mr5wb7j3_E2UGuq-37" value="Архив отклонённых идей" style="shape=process;whiteSpace=wrap;html=1;backgroundOutline=1;" parent="ON_k6Mr5wb7j3_E2UGuq-14" vertex="1">
          <mxGeometry x="700" y="200" width="120" height="60" as="geometry" />
        </mxCell>
        <mxCell id="ON_k6Mr5wb7j3_E2UGuq-57" style="edgeStyle=orthogonalEdgeStyle;rounded=0;orthogonalLoop=1;jettySize=auto;html=1;exitX=0.5;exitY=1;exitDx=0;exitDy=0;" parent="ON_k6Mr5wb7j3_E2UGuq-14" source="ON_k6Mr5wb7j3_E2UGuq-34" target="ON_k6Mr5wb7j3_E2UGuq-34" edge="1">
          <mxGeometry relative="1" as="geometry" />
        </mxCell>
        <mxCell id="ON_k6Mr5wb7j3_E2UGuq-67" value="1" style="text;html=1;align=center;verticalAlign=middle;whiteSpace=wrap;rounded=0;" parent="ON_k6Mr5wb7j3_E2UGuq-14" vertex="1">
          <mxGeometry x="236" y="141" width="20" height="20" as="geometry" />
        </mxCell>
        <mxCell id="ON_k6Mr5wb7j3_E2UGuq-69" value="3" style="text;html=1;align=center;verticalAlign=middle;whiteSpace=wrap;rounded=0;" parent="ON_k6Mr5wb7j3_E2UGuq-14" vertex="1">
          <mxGeometry x="537" y="339" width="20" height="20" as="geometry" />
        </mxCell>
        <mxCell id="ON_k6Mr5wb7j3_E2UGuq-73" value="2" style="text;html=1;align=center;verticalAlign=middle;whiteSpace=wrap;rounded=0;" parent="ON_k6Mr5wb7j3_E2UGuq-14" vertex="1">
          <mxGeometry x="40" y="200" width="20" height="20" as="geometry" />
        </mxCell>
        <mxCell id="ON_k6Mr5wb7j3_E2UGuq-72" value="1" style="text;html=1;align=center;verticalAlign=middle;whiteSpace=wrap;rounded=0;" parent="ON_k6Mr5wb7j3_E2UGuq-14" vertex="1">
          <mxGeometry x="35" y="99" width="20" height="20" as="geometry" />
        </mxCell>
        <mxCell id="ON_k6Mr5wb7j3_E2UGuq-74" value="3" style="text;html=1;align=center;verticalAlign=middle;whiteSpace=wrap;rounded=0;" parent="ON_k6Mr5wb7j3_E2UGuq-14" vertex="1">
          <mxGeometry x="45" y="309" width="20" height="20" as="geometry" />
        </mxCell>
        <mxCell id="ON_k6Mr5wb7j3_E2UGuq-76" value="2" style="text;html=1;align=center;verticalAlign=middle;whiteSpace=wrap;rounded=0;" parent="ON_k6Mr5wb7j3_E2UGuq-14" vertex="1">
          <mxGeometry x="295" y="390" width="20" height="20" as="geometry" />
        </mxCell>
        <mxCell id="ON_k6Mr5wb7j3_E2UGuq-77" value="3" style="text;html=1;align=center;verticalAlign=middle;whiteSpace=wrap;rounded=0;" parent="ON_k6Mr5wb7j3_E2UGuq-14" vertex="1">
          <mxGeometry x="710" y="200" width="20" height="20" as="geometry" />
        </mxCell>
        <mxCell id="ON_k6Mr5wb7j3_E2UGuq-78" value="4" style="text;html=1;align=center;verticalAlign=middle;whiteSpace=wrap;rounded=0;" parent="ON_k6Mr5wb7j3_E2UGuq-14" vertex="1">
          <mxGeometry x="510" y="469" width="20" height="20" as="geometry" />
        </mxCell>
        <mxCell id="1prHQSaQj-gpkaamGycr-52" value="" style="rounded=0;whiteSpace=wrap;html=1;" vertex="1" parent="ON_k6Mr5wb7j3_E2UGuq-14">
          <mxGeometry x="840" y="10" width="20" height="10" as="geometry" />
        </mxCell>
        <mxCell id="1prHQSaQj-gpkaamGycr-56" value="" style="rounded=0;whiteSpace=wrap;html=1;" vertex="1" parent="ON_k6Mr5wb7j3_E2UGuq-14">
          <mxGeometry x="880" y="20" width="20" height="10" as="geometry" />
        </mxCell>
        <mxCell id="1prHQSaQj-gpkaamGycr-57" value="" style="rounded=0;whiteSpace=wrap;html=1;" vertex="1" parent="ON_k6Mr5wb7j3_E2UGuq-14">
          <mxGeometry x="920" y="30" width="20" height="10" as="geometry" />
        </mxCell>
        <mxCell id="1prHQSaQj-gpkaamGycr-58" value="" style="rounded=0;whiteSpace=wrap;html=1;" vertex="1" parent="ON_k6Mr5wb7j3_E2UGuq-14">
          <mxGeometry x="960" y="40" width="20" height="10" as="geometry" />
        </mxCell>
        <mxCell id="ON_k6Mr5wb7j3_E2UGuq-68" value="2" style="text;html=1;align=center;verticalAlign=middle;whiteSpace=wrap;rounded=0;" parent="WIyWlLk6GJQsqaUBKTNV-1" vertex="1">
          <mxGeometry x="446" y="1008" width="20" height="20" as="geometry" />
        </mxCell>
        <mxCell id="ON_k6Mr5wb7j3_E2UGuq-70" value="4" style="text;html=1;align=center;verticalAlign=middle;whiteSpace=wrap;rounded=0;" parent="WIyWlLk6GJQsqaUBKTNV-1" vertex="1">
          <mxGeometry x="808" y="1167" width="20" height="20" as="geometry" />
        </mxCell>
        <mxCell id="ON_k6Mr5wb7j3_E2UGuq-75" value="1" style="text;html=1;align=center;verticalAlign=middle;whiteSpace=wrap;rounded=0;" parent="WIyWlLk6GJQsqaUBKTNV-1" vertex="1">
          <mxGeometry x="550" y="830" width="20" height="20" as="geometry" />
        </mxCell>
        <mxCell id="1prHQSaQj-gpkaamGycr-0" value="" style="group;fillColor=light-dark(#ffffff, #ededed);fillStyle=solid;perimeterSpacing=1;strokeColor=default;" vertex="1" connectable="0" parent="WIyWlLk6GJQsqaUBKTNV-1">
          <mxGeometry x="80" y="1440" width="1000" height="600" as="geometry" />
        </mxCell>
        <mxCell id="1prHQSaQj-gpkaamGycr-2" value="" style="rounded=0;whiteSpace=wrap;html=1;" vertex="1" parent="1prHQSaQj-gpkaamGycr-0">
          <mxGeometry width="1000" height="60" as="geometry" />
        </mxCell>
        <mxCell id="1prHQSaQj-gpkaamGycr-3" value="Интерпретировать данные/сгенерировать гипотезы" style="rounded=0;whiteSpace=wrap;html=1;" vertex="1" parent="1prHQSaQj-gpkaamGycr-0">
          <mxGeometry y="540" width="1000" height="60" as="geometry" />
        </mxCell>
        <mxCell id="1prHQSaQj-gpkaamGycr-4" value="" style="rounded=0;whiteSpace=wrap;html=1;" vertex="1" parent="1prHQSaQj-gpkaamGycr-0">
          <mxGeometry width="170" height="60" as="geometry" />
        </mxCell>
        <mxCell id="1prHQSaQj-gpkaamGycr-5" value="" style="rounded=0;whiteSpace=wrap;html=1;" vertex="1" parent="1prHQSaQj-gpkaamGycr-0">
          <mxGeometry x="830" width="170" height="60" as="geometry" />
        </mxCell>
        <mxCell id="1prHQSaQj-gpkaamGycr-6" value="A0" style="rounded=0;whiteSpace=wrap;html=1;" vertex="1" parent="1prHQSaQj-gpkaamGycr-0">
          <mxGeometry y="540" width="170" height="60" as="geometry" />
        </mxCell>
        <mxCell id="1prHQSaQj-gpkaamGycr-7" value="ЛАА002" style="rounded=0;whiteSpace=wrap;html=1;" vertex="1" parent="1prHQSaQj-gpkaamGycr-0">
          <mxGeometry x="830" y="540" width="170" height="60" as="geometry" />
        </mxCell>
        <mxCell id="1prHQSaQj-gpkaamGycr-84" style="edgeStyle=orthogonalEdgeStyle;rounded=0;orthogonalLoop=1;jettySize=auto;html=1;exitX=0;exitY=0;exitDx=120;exitDy=50;exitPerimeter=0;entryX=0;entryY=0.75;entryDx=0;entryDy=0;" edge="1" parent="1prHQSaQj-gpkaamGycr-0" source="1prHQSaQj-gpkaamGycr-21" target="1prHQSaQj-gpkaamGycr-72">
          <mxGeometry relative="1" as="geometry">
            <Array as="points">
              <mxPoint x="210" y="480" />
              <mxPoint x="210" y="406" />
            </Array>
          </mxGeometry>
        </mxCell>
        <mxCell id="1prHQSaQj-gpkaamGycr-90" value="&lt;font style=&quot;font-size: 6px;&quot;&gt;Критерии поиска&amp;nbsp;&lt;/font&gt;&lt;div&gt;&lt;font style=&quot;font-size: 6px;&quot;&gt;аналогов&lt;/font&gt;&lt;/div&gt;" style="edgeLabel;html=1;align=center;verticalAlign=middle;resizable=0;points=[];" vertex="1" connectable="0" parent="1prHQSaQj-gpkaamGycr-84">
          <mxGeometry x="0.5316" y="-2" relative="1" as="geometry">
            <mxPoint y="3" as="offset" />
          </mxGeometry>
        </mxCell>
        <mxCell id="1prHQSaQj-gpkaamGycr-85" style="edgeStyle=orthogonalEdgeStyle;rounded=0;orthogonalLoop=1;jettySize=auto;html=1;exitX=0;exitY=0;exitDx=120;exitDy=50;exitPerimeter=0;entryX=0;entryY=0.75;entryDx=0;entryDy=0;" edge="1" parent="1prHQSaQj-gpkaamGycr-0" source="1prHQSaQj-gpkaamGycr-21" target="1prHQSaQj-gpkaamGycr-69">
          <mxGeometry relative="1" as="geometry">
            <Array as="points">
              <mxPoint x="170" y="480" />
              <mxPoint x="170" y="268" />
            </Array>
          </mxGeometry>
        </mxCell>
        <mxCell id="1prHQSaQj-gpkaamGycr-91" value="&lt;font style=&quot;font-size: 6px;&quot;&gt;Выбор значимых&lt;/font&gt;&lt;div&gt;&lt;font style=&quot;font-size: 6px;&quot;&gt;атрибутов/&lt;/font&gt;&lt;/div&gt;&lt;div&gt;&lt;font style=&quot;font-size: 6px;&quot;&gt;Пороги фильтрации&lt;/font&gt;&lt;/div&gt;" style="edgeLabel;html=1;align=center;verticalAlign=middle;resizable=0;points=[];" vertex="1" connectable="0" parent="1prHQSaQj-gpkaamGycr-85">
          <mxGeometry x="0.6794" y="-1" relative="1" as="geometry">
            <mxPoint x="8" y="-10" as="offset" />
          </mxGeometry>
        </mxCell>
        <mxCell id="1prHQSaQj-gpkaamGycr-86" style="edgeStyle=orthogonalEdgeStyle;rounded=0;orthogonalLoop=1;jettySize=auto;html=1;exitX=0;exitY=0;exitDx=120;exitDy=50;exitPerimeter=0;entryX=0;entryY=0.75;entryDx=0;entryDy=0;" edge="1" parent="1prHQSaQj-gpkaamGycr-0" source="1prHQSaQj-gpkaamGycr-21" target="1prHQSaQj-gpkaamGycr-31">
          <mxGeometry relative="1" as="geometry">
            <Array as="points">
              <mxPoint x="160" y="480" />
              <mxPoint x="160" y="206" />
            </Array>
          </mxGeometry>
        </mxCell>
        <mxCell id="1prHQSaQj-gpkaamGycr-92" value="&lt;font style=&quot;font-size: 6px;&quot;&gt;Выбор горизонтов&amp;nbsp;&lt;/font&gt;&lt;div&gt;&lt;font style=&quot;font-size: 6px;&quot;&gt;для интерпретации&lt;/font&gt;&lt;/div&gt;" style="edgeLabel;html=1;align=center;verticalAlign=middle;resizable=0;points=[];" vertex="1" connectable="0" parent="1prHQSaQj-gpkaamGycr-86">
          <mxGeometry x="0.7639" y="-1" relative="1" as="geometry">
            <mxPoint x="9" y="5" as="offset" />
          </mxGeometry>
        </mxCell>
        <mxCell id="1prHQSaQj-gpkaamGycr-21" value="Геологи/геофизики" style="shape=cube;whiteSpace=wrap;html=1;boundedLbl=1;backgroundOutline=1;darkOpacity=0.05;darkOpacity2=0.1;" vertex="1" parent="1prHQSaQj-gpkaamGycr-0">
          <mxGeometry x="25" y="430" width="120" height="80" as="geometry" />
        </mxCell>
        <mxCell id="1prHQSaQj-gpkaamGycr-37" value="Каталог интерпретаций" style="shape=process;whiteSpace=wrap;html=1;backgroundOutline=1;" vertex="1" parent="1prHQSaQj-gpkaamGycr-0">
          <mxGeometry x="810" y="401" width="120" height="60" as="geometry" />
        </mxCell>
        <mxCell id="1prHQSaQj-gpkaamGycr-81" style="edgeStyle=orthogonalEdgeStyle;rounded=0;orthogonalLoop=1;jettySize=auto;html=1;exitX=1;exitY=0.5;exitDx=0;exitDy=0;entryX=0;entryY=0.5;entryDx=0;entryDy=0;" edge="1" parent="1prHQSaQj-gpkaamGycr-0" source="1prHQSaQj-gpkaamGycr-40" target="1prHQSaQj-gpkaamGycr-31">
          <mxGeometry relative="1" as="geometry" />
        </mxCell>
        <mxCell id="1prHQSaQj-gpkaamGycr-87" value="&lt;font style=&quot;font-size: 6px;&quot;&gt;Сейсмические кубы/&lt;/font&gt;&lt;div&gt;&lt;span style=&quot;font-size: 6px;&quot;&gt;Каротажные данные&lt;/span&gt;&lt;/div&gt;" style="edgeLabel;html=1;align=center;verticalAlign=middle;resizable=0;points=[];" vertex="1" connectable="0" parent="1prHQSaQj-gpkaamGycr-81">
          <mxGeometry x="0.5714" y="2" relative="1" as="geometry">
            <mxPoint x="5" y="-6" as="offset" />
          </mxGeometry>
        </mxCell>
        <mxCell id="1prHQSaQj-gpkaamGycr-83" style="edgeStyle=orthogonalEdgeStyle;rounded=0;orthogonalLoop=1;jettySize=auto;html=1;exitX=1;exitY=0.5;exitDx=0;exitDy=0;entryX=0;entryY=0.5;entryDx=0;entryDy=0;" edge="1" parent="1prHQSaQj-gpkaamGycr-0" source="1prHQSaQj-gpkaamGycr-40" target="1prHQSaQj-gpkaamGycr-72">
          <mxGeometry relative="1" as="geometry">
            <Array as="points">
              <mxPoint x="190" y="120" />
              <mxPoint x="190" y="391" />
            </Array>
          </mxGeometry>
        </mxCell>
        <mxCell id="1prHQSaQj-gpkaamGycr-89" value="&lt;font style=&quot;font-size: 6px;&quot;&gt;Данные по близлежащим&amp;nbsp;&lt;/font&gt;&lt;div&gt;&lt;font style=&quot;font-size: 6px;&quot;&gt;месторождениям&lt;/font&gt;&lt;/div&gt;" style="edgeLabel;html=1;align=center;verticalAlign=middle;resizable=0;points=[];" vertex="1" connectable="0" parent="1prHQSaQj-gpkaamGycr-83">
          <mxGeometry x="0.7005" y="1" relative="1" as="geometry">
            <mxPoint y="-11" as="offset" />
          </mxGeometry>
        </mxCell>
        <mxCell id="1prHQSaQj-gpkaamGycr-40" value="Хранилище исходных данных" style="shape=process;whiteSpace=wrap;html=1;backgroundOutline=1;" vertex="1" parent="1prHQSaQj-gpkaamGycr-0">
          <mxGeometry x="30" y="90" width="120" height="60" as="geometry" />
        </mxCell>
        <mxCell id="1prHQSaQj-gpkaamGycr-60" value="" style="rounded=0;whiteSpace=wrap;html=1;" vertex="1" parent="1prHQSaQj-gpkaamGycr-0">
          <mxGeometry x="885" y="20" width="20" height="10" as="geometry" />
        </mxCell>
        <mxCell id="1prHQSaQj-gpkaamGycr-61" value="" style="rounded=0;whiteSpace=wrap;html=1;" vertex="1" parent="1prHQSaQj-gpkaamGycr-0">
          <mxGeometry x="925" y="30" width="20" height="10" as="geometry" />
        </mxCell>
        <mxCell id="1prHQSaQj-gpkaamGycr-62" value="" style="rounded=0;whiteSpace=wrap;html=1;" vertex="1" parent="1prHQSaQj-gpkaamGycr-0">
          <mxGeometry x="965" y="40" width="20" height="10" as="geometry" />
        </mxCell>
        <mxCell id="1prHQSaQj-gpkaamGycr-63" value="" style="rounded=0;whiteSpace=wrap;html=1;" vertex="1" parent="1prHQSaQj-gpkaamGycr-0">
          <mxGeometry x="845" y="10" width="20" height="10" as="geometry" />
        </mxCell>
        <mxCell id="1prHQSaQj-gpkaamGycr-66" value="" style="group" vertex="1" connectable="0" parent="1prHQSaQj-gpkaamGycr-0">
          <mxGeometry x="300" y="160" width="133" height="61" as="geometry" />
        </mxCell>
        <mxCell id="1prHQSaQj-gpkaamGycr-31" value="&lt;div style=&quot;&quot;&gt;&lt;span style=&quot;font-size: 10px;&quot;&gt;Структурная интерпретация&lt;/span&gt;&lt;/div&gt;" style="rounded=1;whiteSpace=wrap;html=1;" vertex="1" parent="1prHQSaQj-gpkaamGycr-66">
          <mxGeometry x="3" y="1" width="130" height="60" as="geometry" />
        </mxCell>
        <mxCell id="1prHQSaQj-gpkaamGycr-45" value="2.1" style="text;html=1;align=center;verticalAlign=middle;whiteSpace=wrap;rounded=0;" vertex="1" parent="1prHQSaQj-gpkaamGycr-66">
          <mxGeometry x="6" width="20" height="20" as="geometry" />
        </mxCell>
        <mxCell id="1prHQSaQj-gpkaamGycr-43" style="edgeStyle=orthogonalEdgeStyle;rounded=0;orthogonalLoop=1;jettySize=auto;html=1;exitX=0.5;exitY=1;exitDx=0;exitDy=0;" edge="1" parent="1prHQSaQj-gpkaamGycr-66" source="1prHQSaQj-gpkaamGycr-31" target="1prHQSaQj-gpkaamGycr-31">
          <mxGeometry relative="1" as="geometry" />
        </mxCell>
        <mxCell id="1prHQSaQj-gpkaamGycr-67" value="" style="group" vertex="1" connectable="0" parent="1prHQSaQj-gpkaamGycr-0">
          <mxGeometry x="300" y="253" width="133" height="61" as="geometry" />
        </mxCell>
        <mxCell id="1prHQSaQj-gpkaamGycr-68" value="&lt;div style=&quot;&quot;&gt;&lt;span style=&quot;font-size: 10px;&quot;&gt;Атрибутивный анализ/ поиск аномалий&lt;/span&gt;&lt;/div&gt;" style="rounded=1;whiteSpace=wrap;html=1;" vertex="1" parent="1prHQSaQj-gpkaamGycr-67">
          <mxGeometry x="3" y="1" width="130" height="60" as="geometry" />
        </mxCell>
        <mxCell id="1prHQSaQj-gpkaamGycr-69" value="2.2" style="text;html=1;align=center;verticalAlign=middle;whiteSpace=wrap;rounded=0;" vertex="1" parent="1prHQSaQj-gpkaamGycr-67">
          <mxGeometry x="4" width="20" height="20" as="geometry" />
        </mxCell>
        <mxCell id="1prHQSaQj-gpkaamGycr-70" style="edgeStyle=orthogonalEdgeStyle;rounded=0;orthogonalLoop=1;jettySize=auto;html=1;exitX=0.5;exitY=1;exitDx=0;exitDy=0;" edge="1" parent="1prHQSaQj-gpkaamGycr-67" source="1prHQSaQj-gpkaamGycr-68" target="1prHQSaQj-gpkaamGycr-68">
          <mxGeometry relative="1" as="geometry" />
        </mxCell>
        <mxCell id="1prHQSaQj-gpkaamGycr-71" value="" style="group" vertex="1" connectable="0" parent="1prHQSaQj-gpkaamGycr-0">
          <mxGeometry x="300" y="360" width="133" height="61" as="geometry" />
        </mxCell>
        <mxCell id="1prHQSaQj-gpkaamGycr-72" value="&lt;div style=&quot;&quot;&gt;&lt;span style=&quot;font-size: 10px;&quot;&gt;Сравнительный анализ/ поиск аналогов&lt;/span&gt;&lt;/div&gt;" style="rounded=1;whiteSpace=wrap;html=1;" vertex="1" parent="1prHQSaQj-gpkaamGycr-71">
          <mxGeometry x="3" y="1" width="130" height="60" as="geometry" />
        </mxCell>
        <mxCell id="1prHQSaQj-gpkaamGycr-73" value="2.3" style="text;html=1;align=center;verticalAlign=middle;whiteSpace=wrap;rounded=0;" vertex="1" parent="1prHQSaQj-gpkaamGycr-71">
          <mxGeometry x="4" width="20" height="20" as="geometry" />
        </mxCell>
        <mxCell id="1prHQSaQj-gpkaamGycr-74" style="edgeStyle=orthogonalEdgeStyle;rounded=0;orthogonalLoop=1;jettySize=auto;html=1;exitX=0.5;exitY=1;exitDx=0;exitDy=0;" edge="1" parent="1prHQSaQj-gpkaamGycr-71" source="1prHQSaQj-gpkaamGycr-72" target="1prHQSaQj-gpkaamGycr-72">
          <mxGeometry relative="1" as="geometry" />
        </mxCell>
        <mxCell id="1prHQSaQj-gpkaamGycr-97" style="edgeStyle=orthogonalEdgeStyle;rounded=0;orthogonalLoop=1;jettySize=auto;html=1;exitX=1;exitY=0.5;exitDx=0;exitDy=0;entryX=0;entryY=0.5;entryDx=0;entryDy=0;" edge="1" parent="1prHQSaQj-gpkaamGycr-0" source="1prHQSaQj-gpkaamGycr-75" target="1prHQSaQj-gpkaamGycr-78">
          <mxGeometry relative="1" as="geometry" />
        </mxCell>
        <mxCell id="1prHQSaQj-gpkaamGycr-104" value="&lt;font style=&quot;font-size: 6px;&quot;&gt;Карты структурных&lt;/font&gt;&lt;div&gt;&lt;font style=&quot;font-size: 6px;&quot;&gt;поверхностей/&lt;/font&gt;&lt;/div&gt;&lt;div&gt;&lt;font style=&quot;font-size: 6px;&quot;&gt;Интерпретированные&amp;nbsp;&lt;/font&gt;&lt;/div&gt;&lt;div&gt;&lt;font style=&quot;font-size: 6px;&quot;&gt;сейсмические разрезы&lt;/font&gt;&lt;/div&gt;" style="edgeLabel;html=1;align=center;verticalAlign=middle;resizable=0;points=[];" vertex="1" connectable="0" parent="1prHQSaQj-gpkaamGycr-97">
          <mxGeometry x="-0.5265" y="1" relative="1" as="geometry">
            <mxPoint x="18" y="-11" as="offset" />
          </mxGeometry>
        </mxCell>
        <mxCell id="1prHQSaQj-gpkaamGycr-75" value="Структурные карты/разрезы" style="shape=process;whiteSpace=wrap;html=1;backgroundOutline=1;" vertex="1" parent="1prHQSaQj-gpkaamGycr-0">
          <mxGeometry x="530" y="200" width="120" height="60" as="geometry" />
        </mxCell>
        <mxCell id="1prHQSaQj-gpkaamGycr-76" value="Карты атрибутов" style="shape=process;whiteSpace=wrap;html=1;backgroundOutline=1;" vertex="1" parent="1prHQSaQj-gpkaamGycr-0">
          <mxGeometry x="530" y="314" width="120" height="60" as="geometry" />
        </mxCell>
        <mxCell id="1prHQSaQj-gpkaamGycr-77" value="" style="group" vertex="1" connectable="0" parent="1prHQSaQj-gpkaamGycr-0">
          <mxGeometry x="700" y="253" width="133" height="61" as="geometry" />
        </mxCell>
        <mxCell id="1prHQSaQj-gpkaamGycr-102" style="edgeStyle=orthogonalEdgeStyle;rounded=0;orthogonalLoop=1;jettySize=auto;html=1;exitX=1;exitY=0.5;exitDx=0;exitDy=0;" edge="1" parent="1prHQSaQj-gpkaamGycr-77" source="1prHQSaQj-gpkaamGycr-78">
          <mxGeometry relative="1" as="geometry">
            <mxPoint x="170" y="147" as="targetPoint" />
          </mxGeometry>
        </mxCell>
        <mxCell id="1prHQSaQj-gpkaamGycr-103" value="Карта перспективный&lt;div&gt;объектов/&lt;/div&gt;&lt;div&gt;Оценка параметров&lt;/div&gt;" style="edgeLabel;html=1;align=center;verticalAlign=middle;resizable=0;points=[];" vertex="1" connectable="0" parent="1prHQSaQj-gpkaamGycr-102">
          <mxGeometry x="-0.114" relative="1" as="geometry">
            <mxPoint y="22" as="offset" />
          </mxGeometry>
        </mxCell>
        <mxCell id="1prHQSaQj-gpkaamGycr-78" value="&lt;div style=&quot;&quot;&gt;&lt;span style=&quot;font-size: 10px;&quot;&gt;Атрибутивный анализ/ поиск аномалий&lt;/span&gt;&lt;/div&gt;" style="rounded=1;whiteSpace=wrap;html=1;" vertex="1" parent="1prHQSaQj-gpkaamGycr-77">
          <mxGeometry x="3" y="1" width="130" height="60" as="geometry" />
        </mxCell>
        <mxCell id="1prHQSaQj-gpkaamGycr-79" value="2.4" style="text;html=1;align=center;verticalAlign=middle;whiteSpace=wrap;rounded=0;" vertex="1" parent="1prHQSaQj-gpkaamGycr-77">
          <mxGeometry x="4" width="20" height="20" as="geometry" />
        </mxCell>
        <mxCell id="1prHQSaQj-gpkaamGycr-80" style="edgeStyle=orthogonalEdgeStyle;rounded=0;orthogonalLoop=1;jettySize=auto;html=1;exitX=0.5;exitY=1;exitDx=0;exitDy=0;" edge="1" parent="1prHQSaQj-gpkaamGycr-77" source="1prHQSaQj-gpkaamGycr-78" target="1prHQSaQj-gpkaamGycr-78">
          <mxGeometry relative="1" as="geometry" />
        </mxCell>
        <mxCell id="1prHQSaQj-gpkaamGycr-82" style="edgeStyle=orthogonalEdgeStyle;rounded=0;orthogonalLoop=1;jettySize=auto;html=1;exitX=1;exitY=0.5;exitDx=0;exitDy=0;entryX=0.008;entryY=0.633;entryDx=0;entryDy=0;entryPerimeter=0;" edge="1" parent="1prHQSaQj-gpkaamGycr-0" source="1prHQSaQj-gpkaamGycr-40" target="1prHQSaQj-gpkaamGycr-68">
          <mxGeometry relative="1" as="geometry">
            <Array as="points">
              <mxPoint x="210" y="120" />
              <mxPoint x="210" y="292" />
            </Array>
          </mxGeometry>
        </mxCell>
        <mxCell id="1prHQSaQj-gpkaamGycr-88" value="&lt;font style=&quot;font-size: 6px;&quot;&gt;Сейсмические кубы/&lt;/font&gt;&lt;div&gt;&lt;span style=&quot;font-size: 6px;&quot;&gt;Гравимагнитные&amp;nbsp; данные&lt;/span&gt;&lt;/div&gt;" style="edgeLabel;html=1;align=center;verticalAlign=middle;resizable=0;points=[];" vertex="1" connectable="0" parent="1prHQSaQj-gpkaamGycr-82">
          <mxGeometry x="0.6603" y="3" relative="1" as="geometry">
            <mxPoint y="9" as="offset" />
          </mxGeometry>
        </mxCell>
        <mxCell id="1prHQSaQj-gpkaamGycr-93" style="edgeStyle=orthogonalEdgeStyle;rounded=0;orthogonalLoop=1;jettySize=auto;html=1;exitX=1;exitY=0.5;exitDx=0;exitDy=0;entryX=0.024;entryY=0.617;entryDx=0;entryDy=0;entryPerimeter=0;" edge="1" parent="1prHQSaQj-gpkaamGycr-0" source="1prHQSaQj-gpkaamGycr-31" target="1prHQSaQj-gpkaamGycr-75">
          <mxGeometry relative="1" as="geometry" />
        </mxCell>
        <mxCell id="1prHQSaQj-gpkaamGycr-98" value="&lt;font style=&quot;font-size: 6px;&quot;&gt;Карты изохрон/&lt;/font&gt;&lt;div&gt;&lt;font style=&quot;font-size: 6px;&quot;&gt;Карты в глубину/&lt;/font&gt;&lt;/div&gt;&lt;div&gt;&lt;font style=&quot;font-size: 6px;&quot;&gt;Структурные карты&lt;/font&gt;&lt;/div&gt;" style="edgeLabel;html=1;align=center;verticalAlign=middle;resizable=0;points=[];" vertex="1" connectable="0" parent="1prHQSaQj-gpkaamGycr-93">
          <mxGeometry x="-0.5681" y="1" relative="1" as="geometry">
            <mxPoint x="13" as="offset" />
          </mxGeometry>
        </mxCell>
        <mxCell id="1prHQSaQj-gpkaamGycr-94" style="edgeStyle=orthogonalEdgeStyle;rounded=0;orthogonalLoop=1;jettySize=auto;html=1;exitX=1;exitY=0.5;exitDx=0;exitDy=0;entryX=0;entryY=0.5;entryDx=0;entryDy=0;" edge="1" parent="1prHQSaQj-gpkaamGycr-0" source="1prHQSaQj-gpkaamGycr-68" target="1prHQSaQj-gpkaamGycr-76">
          <mxGeometry relative="1" as="geometry" />
        </mxCell>
        <mxCell id="1prHQSaQj-gpkaamGycr-99" value="&lt;font style=&quot;font-size: 6px;&quot;&gt;Карты амплитуд/&lt;/font&gt;&lt;div&gt;&lt;font style=&quot;font-size: 6px;&quot;&gt;Карты когерентности/&lt;/font&gt;&lt;/div&gt;&lt;div&gt;&lt;font style=&quot;font-size: 6px;&quot;&gt;Спектральные карты&lt;/font&gt;&lt;/div&gt;" style="edgeLabel;html=1;align=center;verticalAlign=middle;resizable=0;points=[];" vertex="1" connectable="0" parent="1prHQSaQj-gpkaamGycr-94">
          <mxGeometry x="-0.5138" relative="1" as="geometry">
            <mxPoint x="3" as="offset" />
          </mxGeometry>
        </mxCell>
        <mxCell id="1prHQSaQj-gpkaamGycr-95" style="edgeStyle=orthogonalEdgeStyle;rounded=0;orthogonalLoop=1;jettySize=auto;html=1;exitX=1;exitY=0.5;exitDx=0;exitDy=0;" edge="1" parent="1prHQSaQj-gpkaamGycr-0" source="1prHQSaQj-gpkaamGycr-72" target="1prHQSaQj-gpkaamGycr-78">
          <mxGeometry relative="1" as="geometry" />
        </mxCell>
        <mxCell id="1prHQSaQj-gpkaamGycr-101" value="Модель аналог/Ожидаемые свойства" style="edgeLabel;html=1;align=center;verticalAlign=middle;resizable=0;points=[];" vertex="1" connectable="0" parent="1prHQSaQj-gpkaamGycr-95">
          <mxGeometry x="-0.1917" y="1" relative="1" as="geometry">
            <mxPoint as="offset" />
          </mxGeometry>
        </mxCell>
        <mxCell id="1prHQSaQj-gpkaamGycr-96" style="edgeStyle=orthogonalEdgeStyle;rounded=0;orthogonalLoop=1;jettySize=auto;html=1;exitX=1;exitY=0.5;exitDx=0;exitDy=0;entryX=-0.021;entryY=0.842;entryDx=0;entryDy=0;entryPerimeter=0;" edge="1" parent="1prHQSaQj-gpkaamGycr-0" source="1prHQSaQj-gpkaamGycr-76" target="1prHQSaQj-gpkaamGycr-78">
          <mxGeometry relative="1" as="geometry" />
        </mxCell>
        <mxCell id="1prHQSaQj-gpkaamGycr-105" value="&lt;font style=&quot;font-size: 6px;&quot;&gt;Карты сейсмических&lt;/font&gt;&lt;div&gt;&lt;font style=&quot;font-size: 6px;&quot;&gt;атрибутов/&lt;/font&gt;&lt;/div&gt;&lt;div&gt;&lt;font style=&quot;font-size: 6px;&quot;&gt;Карты палеорельефа&lt;/font&gt;&lt;/div&gt;" style="edgeLabel;html=1;align=center;verticalAlign=middle;resizable=0;points=[];" vertex="1" connectable="0" parent="1prHQSaQj-gpkaamGycr-96">
          <mxGeometry x="-0.365" relative="1" as="geometry">
            <mxPoint x="15" y="8" as="offset" />
          </mxGeometry>
        </mxCell>
        <mxCell id="1prHQSaQj-gpkaamGycr-53" value="" style="rounded=0;whiteSpace=wrap;html=1;" vertex="1" parent="WIyWlLk6GJQsqaUBKTNV-1">
          <mxGeometry x="920" y="770" width="20" height="10" as="geometry" />
        </mxCell>
        <mxCell id="1prHQSaQj-gpkaamGycr-54" value="" style="rounded=0;whiteSpace=wrap;html=1;" vertex="1" parent="WIyWlLk6GJQsqaUBKTNV-1">
          <mxGeometry x="920" y="770" width="20" height="10" as="geometry" />
        </mxCell>
        <mxCell id="1prHQSaQj-gpkaamGycr-106" value="1" style="text;html=1;align=center;verticalAlign=middle;whiteSpace=wrap;rounded=0;" vertex="1" parent="WIyWlLk6GJQsqaUBKTNV-1">
          <mxGeometry x="118" y="1528" width="20" height="20" as="geometry" />
        </mxCell>
        <mxCell id="1prHQSaQj-gpkaamGycr-107" value="1.1" style="text;html=1;align=center;verticalAlign=middle;whiteSpace=wrap;rounded=0;" vertex="1" parent="WIyWlLk6GJQsqaUBKTNV-1">
          <mxGeometry x="622" y="1638" width="20" height="20" as="geometry" />
        </mxCell>
        <mxCell id="1prHQSaQj-gpkaamGycr-108" value="1.2" style="text;html=1;align=center;verticalAlign=middle;whiteSpace=wrap;rounded=0;" vertex="1" parent="WIyWlLk6GJQsqaUBKTNV-1">
          <mxGeometry x="621" y="1751" width="20" height="20" as="geometry" />
        </mxCell>
        <mxCell id="1prHQSaQj-gpkaamGycr-110" value="2" style="text;html=1;align=center;verticalAlign=middle;whiteSpace=wrap;rounded=0;" vertex="1" parent="WIyWlLk6GJQsqaUBKTNV-1">
          <mxGeometry x="898" y="1839" width="20" height="20" as="geometry" />
        </mxCell>
        <mxCell id="1prHQSaQj-gpkaamGycr-111" value="3" style="text;html=1;align=center;verticalAlign=middle;whiteSpace=wrap;rounded=0;" vertex="1" parent="WIyWlLk6GJQsqaUBKTNV-1">
          <mxGeometry x="121" y="1889" width="20" height="20" as="geometry" />
        </mxCell>
      </root>
    </mxGraphModel>
  </diagram>
</mxfile>
